{"title":"Fender Bender 2016 Movies HDRip XviD AAC New Source +Sample ☻rDX","uid":15967431,"size":739971087,"categoryP":"video","categoryS":"movies","magnet":"?xt=urn:btih:88f4b2380717e0336f240281b8b8a9705bb59c36&amp;dn=Fender+Bender+2016+Movies+HDRip+XviD+AAC+New+Source+%2BSample+%E2%98%BBrDX&amp;tr=udp%3A%2F%2Ftracker.leechers-paradise.org%3A6969&amp;tr=udp%3A%2F%2Fzer0day.ch%3A1337&amp;tr=udp%3A%2F%2Fopen.demonii.com%3A1337&amp;tr=udp%3A%2F%2Ftracker.coppersurfer.tk%3A6969&amp;tr=udp%3A%2F%2Fexodus.desync.com%3A6969","seeders":1,"leechers":2,"uploader":"basicssom","files":2,"time":1475737137,"description":"----------------------------------------------------------------\r\nFender Bender 2016 English Movies HDRip XviD AAC New Source with Sample ☻rDX☻\r\n\r\nSCREEN SHOTS &amp; POSTER:\r\n  \nhttp://postimage.co.nr/2016/10/hospital/index.htm  \nhttp://postimage.co.nr/2016/10/hospital/1.html  \nhttp://postimage.co.nr/2016/10/hospital/2.html  \nhttp://postimage.co.nr/2016/10/hospital/3.html  \nhttp://postimage.co.nr/2016/10/hospital/4.html  \nhttp://postimage.co.nr/2016/10/hospital/5.html  \nhttp://postimage.co.nr/2016/10/hospital/6.html  \nhttp://postimage.co.nr/2016/10/hospital/7.html  \nhttp://postimage.co.nr/2016/10/hospital/8.html  \nhttp://postimage.co.nr/2016/10/hospital/9.html  \nhttp://postimage.co.nr/2016/10/hospital/10.html\r\n\r\nFormat                                   : Matroska\r\nFormat version                           : Version 4 / Version 2\r\nFile size                                : 698 MiB\r\nDuration                                 : 1 h 30 min\r\nOverall bit rate                         : 1 073 kb/s\r\nMovie name                               : Fender Bender 2016 English Movies HDRip XviD AAC New Source ☻rDX☻\r\n\r\nVideo\r\nID                                       : 1\r\nFormat                                   : AVC\r\nFormat/Info                              : Advanced Video Codec\r\nFormat profile                           :   \r\nFormat settings, CABAC                   : Yes\r\nFormat settings, ReFrames                : 5 frames\r\nCodec ID                                 : V_MPEG4/ISO/AVC\r\nDuration                                 : 1 h 30 min\r\nBit rate                                 : 890 kb/s\r\nWidth                                    : 720 pixels\r\nHeight                                   : 304 pixels\r\nDisplay aspect ratio                     : 2.35:1\r\nFrame rate mode                          : Constant\r\nFrame rate                               : 23.976 FPS\r\nStandard                                 : Component\r\nColor space                              : YUV\r\nChroma subsampling                       : 4:2:0\r\nBit depth                                : 8 bits\r\nScan type                                : Progressive\r\nBits/(Pixel*Frame)                       : 0.170\r\nStream size                              : 559 MiB (80%)\r\nTitle                                    : ☻rDX☻\r\nWriting library                          : XviD\r\n\r\nAudio\r\nID                                       : 2\r\nFormat                                   : AC-3\r\nFormat/Info                              : Audio Coding 3\r\nMode extension                           : CM (complete main)\r\nFormat settings, Endianness              : Big\r\nCodec ID                                 : A_AC3\r\nDuration                                 : 1 h 30 min\r\nBit rate mode                            : Constant\r\nBit rate                                 : 192 kb/s\r\nChannel(s)                               : 2 channels\r\nChannel positions                        : Front: L R\r\nSampling rate                            : 48.0 kHz\r\nFrame rate                               : 31.250 FPS (1536 spf)\r\nCompression mode                         : Lossy\r\nStream size                              : 125 MiB (18%)\r\nTitle                                    : ☻rDX☻\r\n\r\nIMDB \nhttp://www.imdb.com/title/tt5131906/","torrent":{"xt":"urn:btih:88f4b2380717e0336f240281b8b8a9705bb59c36","amp;dn":"Fender+Bender+2016+Movies+HDRip+XviD+AAC+New+Source+%2BSample+%E2%98%BBrDX","amp;tr":["udp%3A%2F%2Ftracker.leechers-paradise.org%3A6969","udp%3A%2F%2Fzer0day.ch%3A1337","udp%3A%2F%2Fopen.demonii.com%3A1337","udp%3A%2F%2Ftracker.coppersurfer.tk%3A6969","udp%3A%2F%2Fexodus.desync.com%3A6969"],"infoHash":"88f4b2380717e0336f240281b8b8a9705bb59c36","infoHashBuffer":{"type":"Buffer","data":[136,244,178,56,7,23,224,51,111,36,2,129,184,184,169,112,91,181,156,54]},"announce":[],"urlList":[]}}